<?xml version="1.0" encoding="utf-8"?>
<!-- Generator: Adobe Illustrator 25.4.1, SVG Export Plug-In . SVG Version: 6.00 Build 0)  -->
<svg version="1.1" id="Layer_1" xmlns="http://www.w3.org/2000/svg" xmlns:xlink="http://www.w3.org/1999/xlink" x="0px" y="0px"
	 viewBox="0 0 293.7 83.1" style="enable-background:new 0 0 293.7 83.1;" xml:space="preserve">
<style type="text/css">
	.st0{fill:#97CF26;}
	.st1{fill:#A169F7;}
	.st2{fill:#FF6163;}
	.st3{fill:#00AAFF;}
</style>
<g transform="translate(14 14)">
	<circle class="st0" cx="46.7" cy="46.7" r="22.5"/>
	<circle class="st1" cx="4.5" cy="46.7" r="10.5"/>
	<circle class="st2" cx="46.7" cy="4.5" r="14.4"/>
	<circle class="st3" cx="4.5" cy="4.5" r="18.5"/>
	<path d="M127.5,57h11.7L117.5-1.8h-8.5L87.5,57h11.7l4.1-11.2h20.1L127.5,57l-20.9-20.1l6.8-18.5l6.8,18.5h-13.6L127.5,57z"/>
	<path d="M168,16.9l-10.7,29.2l-10.7-29.2h-10.9L150.4,57h13.9L179,16.9L168,16.9"/>
	<g>
		<path d="M183.5,16.9h10.9V57h-10.9V16.9z"/>
		<circle cx="189.1" cy="5.2" r="7.1"/>
	</g>
	<path d="M233.1,25.7v-8.8H220V5.8h-10.9v11.1h-8.7v8.8h8.7V43c0,8.9,4.5,14.8,15.8,14.8c4.4,0,8.2-1.6,8.2-1.6l-1.3-8.7
		c0,0-2.2,0.6-4.8,0.6c-3.2,0-7-1.4-7-5.9V25.7L233.1,25.7"/>
	<path d="M258.3,47.8c-6.1,0-11.1-4.8-11.1-10.8c0-6,4.9-10.8,11-10.8c6.1,0,11.1,4.8,11.1,10.8C269.3,43,264.4,47.8,258.3,47.8
		 M258.3,15.8c-11.9,0-21.5,9.4-21.5,21c0,11.6,9.6,21,21.5,21c11.9,0,21.5-9.4,21.5-21C279.7,25.2,270.1,15.8,258.3,15.8"/>
</g>
</svg>
